<svg xmlns="http://www.w3.org/2000/svg" width="800" height="800" viewBox="0 -500 900 1800" style="background: transparent;">
    <path id="spiral" d="M 400,400 Q 413.8371621106233,400 421.8211125363008,412.59842519685037 Q 430.34733490841745,426.0525386419134 425.1968503937008,443.6422250726016 Q 419.4717002704278,463.19448178733285 400,475.59055118110234 Q 378.1237744918052,489.5173888843912 349.60629921259846,487.28445014520327 Q 317.71904289062286,484.7876551368572 290.894437318496,462.99212598425197 Q 261.1864413197388,438.8537843741445 248.81889763779532,400.0000000000001 Q 235.2589377169842,357.40012952980794 247.25221224589427,311.8110236220474 Q 260.28240041217066,262.28037818584994 299.2125984251968,225.43109970959355 Q 341.1754052834335,185.71131315605155 399.99999999999994,173.22834645669295 Q 462.9794961116318,159.86368229722225 525.9842519685039,181.78887463699186 Q 593.0504689264532,205.1274256131142 640.0322378993089,261.4173228346458 Q 689.795248875801,321.03948765604866 702.3622047244094,400.00000000000017 Q 715.6162489833805,483.2776161486752 683.6744629719104,563.7795275590554 Q 650.1114200944899,648.3674433196414 576.3779527559052,705.4955755082117 Q 499.1540507279246,765.3280700647649 399.99999999999943,777.9527559055118 Q 296.449975190729,791.1371545500588 198.42519685039338,749.137800580813 Q 96.31500615132967,705.3880251092728 29.041086882886077,614.1732283464567 Q -40.87747739713495,519.3726325122611 -53.54330708661411,400.00000000000017 Q -66.68022210085667,276.18749290126743 -14.601138189715641,160.62992125984297 Q 39.31565136442606,40.99468953785265 148.03149606299152,-36.42225072601576 Q 260.3961015522269,-116.43748654608078 399.9999999999988,-129.1338582677164 Q 544.0706125660776,-142.23645835009881 677.1653543307073,-80.06447579861856 Q 814.3283100914555,-15.992125687692123 901.8855883349177,110.2362204724393 Q 992.004561359967,240.15767475714824 1004.7244094488186,399.99999999999756 Q 1017.8011055767527,564.3266099549637 945.5278134075215,714.9606299212571 Q 871.3070961666741,869.6535277705989 727.5590551181131,967.3489259438192 Q 580.0851317900438,1067.5765433402576 400.000000000004,1080.314960629921 Q 215.41846797287954,1093.3714331746296 47.24409448819313,1010.9911510164249 Q -124.98051261524427,926.6268603472581 -232.81226355272065,765.3543307086657 Q -343.15205785849184,600.3307862258212 -355.9055118110232,400.00000000000585 Q -368.9457694099299,195.1641126318118 -276.45448862532817,9.448818897643662 Q -181.949970410501,-180.30889891735978 -3.14960629921859,-298.27560116162203 Q 179.4216161062661,-418.73019385179305 399.99999999999204,-431.4960629921254 Q 625.0899414545274,-444.5230363822202 828.3464566929056,-341.9178262342316 Q 1035.6384035007068,-237.27550399793995 1163.7389387705234,-40.94488188977169 Q 1294.3103259130937,159.17263997094756 1307.0866141732276,399.99999999998965 Q 1320.102509080696,645.3438389271323 1207.3811638431353,866.1417322834545 M 413.8371621106233,400 L 683.6744629719104,563.7795275590554 M 945.5278134075215,714.9606299212571 L 1207.3811638431353,866.1417322834545" fill="none" stroke="black" stroke-width="3"/>
</svg>