<svg xmlns="http://www.w3.org/2000/svg" width="800" height="800" viewBox="-300 -400 1600 1600" style="background: transparent;">
    <path id="spiral" d="M 419.09347346926324,411.0236220472441 Q 426.55391804486527,422.7959713116742 422.0472440944882,438.18694693852643 Q 417.0377377366243,455.29517156391626 400,466.14173228346453 Q 380.85830268032953,478.32771527384233 355.90551181102364,476.37389387705286 Q 328.00416252929494,474.18919824475006 304.53263265368395,455.1181102362205 Q 278.53813615477145,433.99706132737646 267.7165354330709,400.00000000000006 Q 255.85157050236117,362.725113338582 266.34568571515746,322.83464566929143 Q 277.74710036064926,279.4953309126186 311.8110236220472,247.25221224589433 Q 348.5284796230043,212.4973990115451 399.99999999999994,201.5748031496063 Q 455.1070590976778,189.88072201006946 510.236220472441,209.06526530736787 Q 568.9191603106467,229.48649741147497 610.0282081618955,278.740157480315 Q 653.5708427663259,330.9095516990425 664.5669291338584,400.00000000000017 Q 676.1642178604579,472.86791413009087 648.2151551004217,543.3070866141735 Q 618.8474925826787,617.3215129046863 554.330708661417,667.3086285696852 Q 486.75979438693406,719.6620613066693 399.9999999999995,730.7086614173229 Q 309.3937282918879,742.2450102313014 223.62204724409418,705.4955755082113 Q 134.2756303824134,667.2145219706138 75.41095102252524,587.4015748031495 Q 14.232207277506859,504.45105344822844 3.1496062992126213,400.00000000000017 Q -8.345194338249598,291.66405628860866 37.22400408399875,190.55118110236256 Q 84.40119494387278,85.87035334562097 179.52755905511754,18.13053061473613 Q 277.84658885819846,-51.88280072782072 399.999999999999,-62.99212598425191 Q 526.0617859953177,-74.45690105633656 642.5196850393688,-20.056416323791268 Q 762.5372713300237,36.00689002326948 839.1498897930529,146.4566929133844 Q 918.0039911899712,260.1379654125046 929.1338582677164,399.99999999999784 Q 940.5759673796587,543.7857837105939 877.3368367315815,675.5905511811001 Q 812.3937091458399,810.9468367992743 686.614173228349,896.4303102008419 Q 557.5744903162883,984.1294754227254 400.0000000000035,995.2755905511809 Q 238.49115947626984,1006.7000040278009 91.33858267716897,934.6172571393718 Q -59.35794853833892,860.7985028038507 -153.71073060863068,719.6850393700824 Q -250.25805062618053,575.2894379475933 -261.41732283464535,400.0000000000051 Q -272.82754823368873,220.7685985528351 -191.89767754716217,58.26771653543818 Q -109.20622410918844,-107.77028655268998 47.24409448818369,-210.9911510164194 Q 206.9939140929829,-316.38891962031914 399.99999999999307,-327.5590551181099 Q 596.9536987727113,-338.9576568344428 774.8031496062924,-249.1780979549527 Q 956.1836030631187,-157.6160659981973 1068.271571424208,14.173228346449662 Q 1182.521535173957,189.27605997457886 1193.7007874015744,399.99999999999096 Q 1205.089695445609,614.6758590612408 1106.4585183627435,807.8740157480228 M 419.09347346926324,411.0236220472441 L 648.2151551004217,543.3070866141735 M 877.3368367315815,675.5905511811001 L 1106.4585183627435,807.8740157480228" fill="none" stroke="black" stroke-width="3"/>
</svg>