<svg xmlns="http://www.w3.org/2000/svg" width="800" height="800" viewBox="0 -300 1000 1500" style="background: transparent;">
    <path id="spiral" d="M 416.36583440222563,409.4488188976378 Q 422.7605011813131,419.53940398143504 418.8976377952756,432.7316688044512 Q 414.6037752028208,447.39586134049966 400,456.6929133858268 Q 383.5928308688539,467.1380416632934 362.20472440944883,465.46333760890246 Q 338.28928216796714,463.5907413526429 318.17082798887196,447.244094488189 Q 295.88983098980407,429.1403382806084 286.6141732283465,400.00000000000006 Q 276.4442032877381,368.0500971473559 285.43915918442065,333.8582677165355 Q 295.21180030912797,296.71028363938746 324.40944881889754,269.0733247821952 Q 355.8815539625752,239.28348486703862 399.99999999999994,229.92125984251967 Q 447.2346220837238,219.89776172291667 494.48818897637796,236.34165597774387 Q 544.7878516948399,253.84556920983565 580.0241784244818,296.0629921259843 Q 617.3464366568508,340.77961574203647 626.7716535433071,400.00000000000017 Q 636.7121867375354,462.45821211150655 612.7558472289329,522.8346456692916 Q 587.5835650708675,586.275582489731 532.2834645669288,629.1216816311587 Q 474.3655380459435,673.9960525485737 399.9999999999996,683.464566929134 Q 322.3374813930468,693.3528659125441 248.81889763779503,661.8533504356096 Q 172.23625461349724,629.0410188319546 121.78081516216452,560.6299212598424 Q 69.34189195214867,489.5294743841956 59.84251968503935,400.0000000000001 Q 49.98983342435747,307.1406196759508 89.0491463577132,220.4724409448822 Q 129.4867385233195,130.7460171533894 211.0236220472436,72.68331195548814 Q 295.29707616417005,12.671885090439446 399.99999999999915,3.149606299212678 Q 508.05295942455825,-6.677343762574139 607.8740157480304,39.95164315103602 Q 710.7462325685917,88.00590573423085 776.4141912511882,182.67716535432945 Q 844.0034210199753,280.118256067861 853.543307086614,399.9999999999982 Q 863.3508291825646,523.2449574662232 809.1458600556413,636.2204724409429 M 416.36583440222563,409.4488188976378 L 612.7558472289329,522.8346456692916 M 809.1458600556413,636.2204724409429 L 612.7558472289329,522.8346456692916" fill="none" stroke="black" stroke-width="3"/>
</svg>