<svg xmlns="http://www.w3.org/2000/svg" width="800" height="800" viewBox="0 -300 1000 1500" style="background: transparent;">
    <path id="spiral" d="M 413.638195335188,407.87401574803147 Q 418.9670843177609,416.28283665119585 415.748031496063,427.27639067037603 Q 412.16981266901735,439.496551117083 400,447.244094488189 Q 386.32735905737826,455.9483680527445 368.503937007874,454.55278134075206 Q 348.57440180663923,452.99228446053576 331.80902332406,439.3700787401575 Q 313.2415258248368,424.28361523384035 305.51181102362204,400.00000000000006 Q 297.0368360731151,373.37508095613 304.5326326536839,344.8818897637796 Q 312.6765002576067,313.9252363661562 337.007874015748,290.894437318496 Q 363.23462830214595,266.0695707225322 400,258.2677165354331 Q 439.3621850697699,249.9148014357639 478.74015748031496,263.6180466481199 Q 520.6565430790333,278.2046410081964 550.0201486870682,313.38582677165357 Q 581.1220305473756,350.64967978503034 588.9763779527559,400.0000000000001 Q 597.2601556146128,452.048510092922 577.2965393574441,502.3622047244096 Q 556.3196375590562,555.2296520747759 510.2362204724407,590.9347346926322 Q 461.97128170495284,628.3300437904782 399.99999999999966,636.220472440945 Q 335.28123449420565,644.4607215937867 274.01574803149583,618.211125363008 Q 210.196878844581,590.8675156932954 168.15067930180376,533.8582677165354 Q 124.45157662679065,474.6078953201632 116.53543307086619,400.0000000000001 Q 108.3248611869646,322.61718306329203 140.8742886314277,250.39370078740185 Q 174.5722821027663,175.62168096115778 242.51968503936968,127.23609329624009 Q 312.7475634701416,77.22657090869961 399.99999999999926,69.29133858267727 Q 490.0441328537985,61.10221353118823 573.228346456692,99.95970262586337 Q 658.9551938071597,140.0049214451925 713.6784927093236,218.89763779527456 Q 770.0028508499794,300.0985467232176 777.9527559055116,399.99999999999847 Q 786.1256909854704,502.70413122185164 740.954883379701,596.8503937007857 Q 694.5669351041713,693.5334548566244 604.7244094488207,754.593078714887 Q 512.5532073687774,817.235339587661 400.0000000000025,825.1968503937005 Q 284.63654248304977,833.3571457341434 179.5275590551207,781.8694693852656 Q 71.8871796154724,729.1417877170363 4.492335279549593,628.346456692916 Q -64.4700361615574,525.206741391138 -72.4409448818895,400.00000000000364 Q -80.59110588120615,271.9775703948826 -22.784055390830133,155.90551181102728 Q 36.28126849343681,37.30693817665019 148.03149606298837,-36.42225072601377 Q 262.1385100664164,-111.70637115737065 399.99999999999505,-119.68503937007836 Q 540.6812134090796,-127.82689773888762 667.7165354330659,-63.69864139639475 Q 797.2740021879417,1.7028100012876166 877.336836731577,124.40944881889271 Q 958.9439536956836,249.48289998184214 966.9291338582673,399.9999999999935 Q 975.0640681754351,553.3398993294595 904.6132274019596,691.3385826771591 M 413.638195335188,407.87401574803147 L 577.2965393574441,502.3622047244096 M 740.954883379701,596.8503937007857 L 904.6132274019596,691.3385826771591" fill="none" stroke="black" stroke-width="3"/>
</svg>