<svg xmlns="http://www.w3.org/2000/svg" width="800" height="800" viewBox="0 -300 1000 1500" style="background: transparent;">
    <path id="spiral" d="M 400,400 Q 406.9185810553117,400 410.9105562681504,406.2992125984252 Q 415.1736674542087,413.02626932095666 412.59842519685037,421.8211125363008 Q 409.73585013521387,431.5972408936664 400,437.79527559055117 Q 389.0618872459026,444.75869444219563 374.80314960629926,443.6422250726016 Q 358.85952144531143,442.3938275684286 345.447218659248,431.496062992126 Q 330.5932206598694,419.4268921870722 324.40944881889766,400.00000000000006 Q 317.6294688584921,378.70006476490397 323.62610612294714,355.9055118110237 Q 330.14120020608533,331.14018909292497 349.6062992125984,312.7155498547968 Q 370.58770264171676,292.8556565780258 400,286.6141732283465 Q 431.48974805581594,279.9318411486111 462.99212598425197,290.89443731849593 Q 496.5252344632266,302.5637128065571 520.0161189496545,330.7086614173229 Q 544.8976244379005,360.51974382802433 551.1811023622047,400.0000000000001 Q 557.8081244916903,441.6388080743376 541.8372314859553,481.8897637795277 Q 525.0557100472449,524.1837216598208 488.1889763779526,552.7477877541058 Q 449.5770253639623,582.6640350323825 399.9999999999997,588.9763779527559 Q 348.2249875953645,595.5685772750294 299.2125984251967,574.5689002904064 Q 248.15750307566483,552.6940125546364 214.52054344144304,507.0866141732283 Q 179.56126130143252,459.68631625613057 173.22834645669295,400.00000000000006 Q 166.65988894957167,338.0937464506337 192.69943090514218,280.3149606299215 Q 219.65782568221303,220.49734476892633 274.0157480314958,181.78887463699212 Q 330.19805077611346,141.7812567269596 399.99999999999943,135.4330708661418 Q 472.0353062830388,128.8817708249506 538.5826771653536,159.96776210069072 Q 607.1641550457277,192.00393715615394 650.9427941674588,255.11811023621965 Q 696.0022806799835,320.0788373785741 702.3622047244094,399.99999999999875 Q 708.9005527883763,482.16330497748186 672.7639067037608,557.4803149606286 Q 635.653548083337,634.8267638852994 563.7795275590565,683.6744629719096 Q 490.0425658950219,733.7882716701288 400.000000000002,740.1574803149605 Q 307.70923398643976,746.6857165873148 223.62204724409656,705.4955755082124 Q 137.50974369237787,663.3134301736291 83.59386822363967,582.6771653543328 Q 28.423971070754078,500.1653931129106 22.047244094488406,400.0000000000029 Q 15.52711529503506,297.5820563159059 61.772755687335916,204.72440944882183 Q 109.0250147947495,109.84555054132011 198.4251968503907,50.86219941918898 Q 289.71080805313306,-9.365096925896523 399.999999999996,-15.748031496062708 Q 512.5449707272637,-22.2615181911101 614.1732283464528,29.0410868828842 Q 717.8192017503534,81.36224800103003 781.8694693852617,179.52755905511415 Q 847.1551629565469,279.5863199854738 853.5433070866138,399.9999999999948 Q 860.051254540348,522.6719194635662 803.6905819215676,633.0708661417273 M 406.9185810553117,400 L 541.8372314859553,481.8897637795277 M 672.7639067037608,557.4803149606286 L 803.6905819215676,633.0708661417273" fill="none" stroke="black" stroke-width="3"/>
</svg>